<svg aria-hidden="true" style="position: absolute; width: 0; height: 0; overflow: hidden;" version="1.1" xmlns="http://www.w3.org/2000/svg" xmlns:xlink="http://www.w3.org/1999/xlink">
<defs>
<symbol id="icon-Vectorr" viewBox="0 0 64 64">
<path fill="#f4f4fd" style="fill: var(--color1, #f4f4fd)" d="M54.052 8.032c1.106-1.059 2.578-1.644 4.105-1.632s2.99 0.619 4.080 1.694c1.090 1.075 1.722 2.534 1.762 4.069s-0.514 3.025-1.546 4.157l-31.325 39.388c-0.539 0.583-1.189 1.051-1.912 1.376s-1.503 0.5-2.295 0.515c-0.792 0.015-1.578-0.131-2.312-0.429s-1.401-0.741-1.961-1.304l-20.774-20.886c-0.579-0.542-1.042-1.196-1.364-1.922s-0.495-1.51-0.509-2.305 0.132-1.584 0.428-2.322c0.296-0.737 0.737-1.407 1.296-1.969s1.225-1.005 1.958-1.303 1.518-0.444 2.309-0.43c0.791 0.014 1.57 0.188 2.293 0.512s1.372 0.79 1.911 1.372l16.44 16.521 27.266-34.928c0.049-0.061 0.102-0.119 0.157-0.174h-0.008z"></path>
</symbol>
<symbol id="icon-email-black-18dp-1" viewBox="0 0 48 64">
<path d="M40 16h-32c-2.2 0-3.98 1.8-3.98 4l-0.020 24c0 2.2 1.8 4 4 4h32c2.2 0 4-1.8 4-4v-24c0-2.2-1.8-4-4-4zM39.2 24.5l-14.14 8.84c-0.64 0.4-1.48 0.4-2.12 0l-14.14-8.84c-0.5-0.32-0.8-0.86-0.8-1.44 0-1.34 1.46-2.14 2.6-1.44l13.4 8.38 13.4-8.38c1.14-0.7 2.6 0.1 2.6 1.44 0 0.58-0.3 1.12-0.8 1.44z"></path>
</symbol>
<symbol id="icon-phone-black-18dp-1" viewBox="0 0 48 64">
<path d="M39.27 36.974l-4.902-0.56c-1.177-0.135-2.335 0.27-3.165 1.1l-3.551 3.551c-5.461-2.779-9.938-7.237-12.717-12.717l3.57-3.57c0.83-0.83 1.235-1.988 1.1-3.165l-0.56-4.863c-0.232-1.949-1.872-3.416-3.84-3.416h-3.339c-2.181 0-3.995 1.814-3.86 3.995 1.023 16.481 14.203 29.642 30.665 30.665 2.181 0.135 3.995-1.679 3.995-3.859v-3.339c0.019-1.949-1.447-3.589-3.396-3.821z"></path>
</symbol>
<symbol id="icon-person-black-18dp-1" viewBox="0 0 64 64">
<path fill="#4d5ae5" style="fill: var(--color2, #4d5ae5)" d="M32 32c5.893 0 10.667-4.773 10.667-10.667s-4.773-10.667-10.667-10.667c-5.893 0-10.667 4.773-10.667 10.667s4.773 10.667 10.667 10.667zM32 37.333c-7.12 0-21.333 3.573-21.333 10.667v2.667c0 1.467 1.2 2.667 2.667 2.667h37.333c1.467 0 2.667-1.2 2.667-2.667v-2.667c0-7.093-14.213-10.667-21.333-10.667z"></path>
</symbol>
<symbol id="icon-close-black-18dp-2-1" viewBox="0 0 64 64">
<path d="M64 6.446l-6.446-6.446-25.554 25.554-25.554-25.554-6.446 6.446 25.554 25.554-25.554 25.554 6.446 6.446 25.554-25.554 25.554 25.554 6.446-6.446-25.554-25.554 25.554-25.554z"></path>
</symbol>
<symbol id="icon-Frame-3" viewBox="0 0 64 64">
<path fill="#fff" style="fill: var(--color3, #fff)" d="M64 5.333l-64 30 20.453 6.313 31.547-24.646-23.995 26.977 0.019 0.006-0.024-0.006v14.69l11.47-11.151 14.53 4.485 10-46.667z"></path>
</symbol>
</defs>
</svg>
